<?xml version="1.0" encoding="UTF-8"?>
<svg xmlns="http://www.w3.org/2000/svg" xmlns:xlink="http://www.w3.org/1999/xlink" width="239px" height="43px" viewBox="0 0 240 43" version="1.1">
<g id="surface1">
<path style=" stroke:none;fill-rule:nonzero;fill:rgb(0%,0%,0%);fill-opacity:1;" d="M 224.292969 25.480469 C 228.753906 25.535156 233.867188 25.753906 236.640625 26.023438 L 236.640625 16.054688 C 233.867188 16.382812 228.753906 16.492188 224.292969 16.546875 L 224.292969 12.785156 C 229.132812 12.894531 234.464844 13.109375 238.535156 13.382812 L 239.023438 1.234375 L 208.027344 1.234375 C 208.355469 4.175781 208.464844 7.117188 208.519531 10.058594 L 208.519531 32.945312 C 208.464844 35.886719 208.355469 38.828125 208.027344 41.769531 L 239.414062 41.769531 L 239.414062 28.75 C 235.824219 29.128906 230.003906 29.402344 224.292969 29.511719 Z M 224.292969 25.480469 "/>
<path style=" stroke:none;fill-rule:nonzero;fill:rgb(0%,0%,0%);fill-opacity:1;" d="M 190.867188 1.289062 C 188.800781 1.125 180.480469 1.234375 176.890625 1.234375 L 167.863281 1.234375 C 168.1875 4.175781 168.296875 7.117188 168.347656 10.058594 L 168.347656 32.945312 C 168.296875 35.886719 168.1875 38.828125 167.863281 41.769531 L 184.015625 41.769531 C 200.992188 41.609375 206.207031 33.378906 206.207031 20.855469 C 206.207031 8.371094 202.339844 2.269531 190.867188 1.289062 Z M 186.460938 29.402344 C 185.757812 29.402344 184.722656 29.457031 184.070312 29.402344 L 184.125 12.730469 C 185.117188 12.578125 186.117188 12.503906 187.121094 12.507812 C 189.789062 12.507812 190.4375 15.179688 190.4375 20.410156 C 190.4375 25.535156 189.945312 28.859375 186.460938 29.402344 Z M 186.460938 29.402344 "/>
<path style=" stroke:none;fill-rule:nonzero;fill:rgb(0%,0%,0%);fill-opacity:1;" d="M 147.40625 41.769531 L 164.097656 41.769531 C 163.773438 38.828125 163.664062 35.886719 163.609375 32.945312 L 163.609375 10.058594 C 163.664062 7.128906 163.773438 4.175781 164.097656 1.234375 L 147.40625 1.234375 C 147.730469 4.175781 147.839844 7.117188 147.894531 10.058594 L 147.894531 32.945312 C 147.839844 35.886719 147.730469 38.828125 147.40625 41.769531 "/>
<path style=" stroke:none;fill-rule:nonzero;fill:rgb(0%,0%,0%);fill-opacity:1;" d="M 112.195312 41.554688 C 116.488281 41.988281 124.214844 42.425781 128.730469 42.371094 C 139.660156 42.261719 144.613281 38.339844 144.613281 28.75 C 144.613281 22.59375 141.949219 19.160156 134.058594 17.523438 L 130.417969 16.707031 C 129.273438 16.4375 128.566406 16.21875 128.566406 15.183594 C 128.566406 13.984375 129.273438 13.546875 130.417969 13.546875 C 133.410156 13.546875 138.683594 14.691406 143.363281 15.835938 L 144.070312 1.34375 C 138.683594 0.90625 133.789062 0.527344 129.328125 0.585938 C 117.464844 0.691406 112.410156 4.496094 112.410156 13.109375 C 112.410156 20.792969 114.753906 24.664062 122.753906 26.132812 L 127.914062 27.167969 C 129.707031 27.496094 129.925781 27.769531 129.925781 28.75 C 129.925781 29.511719 129.382812 29.894531 127.207031 29.894531 C 124.050781 29.894531 117.199219 28.476562 112.738281 26.078125 Z M 112.195312 41.554688 "/>
<path style=" stroke:none;fill-rule:nonzero;fill:rgb(0%,0%,0%);fill-opacity:1;" d="M 76.4375 15.945312 C 79.59375 15.78125 82.417969 15.617188 85.25 15.507812 L 85.25 32.835938 C 85.195312 35.777344 85.085938 38.71875 84.757812 41.664062 L 101.511719 41.664062 C 101.1875 38.71875 101.078125 35.777344 101.023438 32.835938 L 101.023438 15.507812 C 104.121094 15.617188 107.003906 15.78125 109.78125 15.945312 L 109.78125 1.234375 L 76.4375 1.234375 Z M 76.4375 15.945312 "/>
<path style=" stroke:none;fill-rule:nonzero;fill:rgb(0%,0%,0%);fill-opacity:1;" d="M 69.660156 1.234375 L 50.625 1.234375 C 46.980469 14.746094 43.773438 28.257812 40.507812 41.769531 L 54.214844 41.769531 C 54.433594 40.300781 54.757812 38.558594 55.140625 36.648438 L 63.082031 36.648438 C 63.410156 38.558594 63.734375 40.300781 63.953125 41.769531 L 79.953125 41.769531 C 76.683594 28.257812 73.199219 14.746094 69.660156 1.234375 Z M 57.152344 26.730469 C 57.859375 23.628906 58.566406 20.628906 59.21875 17.960938 L 59.328125 17.960938 C 59.925781 20.628906 60.578125 23.628906 61.234375 26.730469 Z M 57.152344 26.730469 "/>
<path style=" stroke:none;fill-rule:nonzero;fill:rgb(0%,0%,0%);fill-opacity:1;" d="M 21.089844 0.585938 C 7.546875 0.585938 0.585938 7.554688 0.585938 21.445312 C 0.585938 35.453125 7.546875 42.425781 21.089844 42.425781 C 34.582031 42.425781 41.597656 35.453125 41.597656 21.445312 C 41.597656 7.554688 34.582031 0.585938 21.089844 0.585938 Z M 21.089844 30.28125 C 17.71875 30.28125 16.902344 27.449219 16.902344 21.453125 C 16.902344 15.570312 17.71875 12.679688 21.089844 12.679688 C 24.460938 12.679688 25.28125 15.570312 25.28125 21.453125 C 25.28125 27.441406 24.464844 30.273438 21.089844 30.273438 Z M 21.089844 30.28125 "/>
</g>
</svg>
